HIERARCHY
ROOT Hips
{
  OFFSET 0 34.322 0
  CHANNELS 6 Xposition Yposition Zposition Zrotation Xrotation Yrotation
  JOINT LeftHip
  {
    OFFSET 4.587 -1.043 0
    CHANNELS 3 Zrotation Xrotation Yrotation
    JOINT LeftKnee
    {
      OFFSET 3.09 -15.571 0
      CHANNELS 3 Zrotation Xrotation Yrotation
      JOINT LeftAnkle
      {
        OFFSET 2.179 -16.111 -2.139
        CHANNELS 3 Zrotation Xrotation Yrotation
        JOINT LeftAnkle_End
        {
          OFFSET 0 -0.867 1.597
          CHANNELS 3 Zrotation Xrotation Yrotation
          End Site
          {
            OFFSET 1 0 0
          }
        }
      }
    }
  }
  JOINT RightHip
  {
    OFFSET -4.587 -1.043 0
    CHANNELS 3 Zrotation Xrotation Yrotation
    JOINT RightKnee
    {
      OFFSET -3.09 -15.571 0
      CHANNELS 3 Zrotation Xrotation Yrotation
      JOINT RightAnkle
      {
        OFFSET -2.719 -16.111 -2.139
        CHANNELS 3 Zrotation Xrotation Yrotation
        JOINT RightAnkle_End
        {
          OFFSET 0 -0.867 1.597
          CHANNELS 3 Zrotation Xrotation Yrotation
          End Site
          {
            OFFSET 1 0 0
          }
        }
      }
    }
  }
  JOINT Chest
  {
    OFFSET 0 12.21 -1.587
    CHANNELS 3 Zrotation Xrotation Yrotation
    JOINT Chest2
    {
      OFFSET 0 6.57 0
      CHANNELS 3 Zrotation Xrotation Yrotation
      JOINT LeftCollar
      {
        OFFSET 2.914 4.941 1.76
        CHANNELS 3 Zrotation Xrotation Yrotation
        JOINT LeftShoulder
        {
          OFFSET 5.81 0 0
          CHANNELS 3 Zrotation Xrotation Yrotation
          JOINT LeftElbow
          {
            OFFSET 12.08 -2.766 0
            CHANNELS 3 Zrotation Xrotation Yrotation
            JOINT LeftWrist
            {
              OFFSET 8.622 -0.562 -1.223
              CHANNELS 3 Zrotation Xrotation Yrotation
              JOINT LeftWrist_End
              {
                OFFSET 7.37 0 0
                CHANNELS 3 Zrotation Xrotation Yrotation
                End Site
                {
                  OFFSET 1 0 0
                }
              }
            }
          }
        }
      }
      JOINT RightCollar
      {
        OFFSET -2.914 4.941 1.76
        CHANNELS 3 Zrotation Xrotation Yrotation
        JOINT RightShoulder
        {
          OFFSET -5.81 0 0
          CHANNELS 3 Zrotation Xrotation Yrotation
          JOINT RightElbow
          {
            OFFSET -12.08 -2.766 0
            CHANNELS 3 Zrotation Xrotation Yrotation
            JOINT RightWrist
            {
              OFFSET -8.622 -0.562 -1.223
              CHANNELS 3 Zrotation Xrotation Yrotation
              JOINT RightWrist_End
              {
                OFFSET -7.14 0 0
                CHANNELS 3 Zrotation Xrotation Yrotation
                End Site
                {
                  OFFSET 1 0 0
                }
              }
            }
          }
        }
      }
      JOINT Neck
      {
        OFFSET 0 9.675 1.799
        CHANNELS 3 Zrotation Xrotation Yrotation
        JOINT Head
        {
          OFFSET 0 5.19 0
          CHANNELS 3 Zrotation Xrotation Yrotation
          JOINT Head_End
          {
            OFFSET 0 4.14001 0
            CHANNELS 3 Zrotation Xrotation Yrotation
            End Site
            {
              OFFSET 1 0 0
            }
          }
        }
      }
    }
  }
}
MOTION
Frames: 10
Frame Time: 0.033333
18.7321 79.4038 -6.29965 -4.80289 -11.1303 162.9 -0.926776 -27.253 5.75847 1.38654 17.3737 1.97055 -0.338289 -2.17716 -0.00615322 0 0 0 -3.17844 -28.4097 -9.42239 0.220844 21.1966 6.1796 -1.6251 -4.60788 -0.0654426 0 0 0 0.197777 17.6632 2.62507 -2.84799 -3.21266 3.20812 16.0088 -1.12717 -8.59515 -57.0807 -14.3732 -31.2068 -0.385391 -0.374295 -69.9302 17.8447 47.489 -30.591 0 0 0 -11.1119 0.52845 -2.65123 34.9905 -6.73935 18.9008 -0.252773 0.46453 62.2831 -14.0172 17.1637 16.0102 0 0 0 -2.66744 4.85153 1.04305 16.8535 23.5148 -6.8369 0 0 0 
18.5234 79.3563 -5.84124 -5.3451 -12.7645 162.48 -0.88405 -29.6548 5.39202 1.10923 17.2213 2.56188 -0.0911502 -1.35241 -0.00391555 0 0 0 -3.05602 -30.8747 -8.8479 0.0862852 20.9515 5.87401 -1.40745 -3.66051 -0.0451505 0 0 0 0.173084 19.4229 2.73754 -2.59599 -3.74645 3.27539 16.9795 -1.37441 -9.52064 -62.0151 -14.4131 -33.4896 -0.436153 -0.224081 -65.2963 15.9045 52.3549 -29.568 0 0 0 -11.4702 0.438331 -1.80856 35.3334 -5.62192 20.3761 -0.265356 0.391679 59.1973 -13.5176 17.2286 15.7591 0 0 0 -2.60855 5.38632 0.804178 17.2331 23.8269 -7.2572 0 0 0 
18.3228 79.3087 -5.43417 -5.79939 -14.2641 162.287 -0.934388 -31.8331 4.90515 0.935514 17.0374 3.05521 0.128605 -0.566264 -0.00375625 0 0 0 -3.06311 -33.0662 -8.49032 0.0723934 20.7151 5.49944 -1.22573 -2.81488 -0.0298872 0 0 0 0.242771 21.5414 2.69373 -2.21581 -4.64244 3.17545 18.1454 -1.67453 -10.5121 -59.2491 -7.73779 -33.9054 1.60732 -3.56518 -61.0627 12.3108 47.4988 -26.0646 0 0 0 -12.0787 0.308295 -0.706839 36.3261 -4.35426 21.4281 -0.758054 -0.380262 56.8198 -13.0037 16.3409 14.0403 0 0 0 -2.73384 6.20988 0.714157 17.767 24.1185 -7.66055 0 0 0 
18.1249 79.2547 -5.0841 -6.22374 -15.6248 162.16 -1.19232 -33.863 4.17376 0.949728 16.9921 3.70253 0.252272 0.0696834 -0.00486326 0 0 0 -3.27288 -35.0908 -8.38169 0.192384 20.664 5.21605 -1.1103 -2.15024 -0.0208649 0 0 0 0.488195 24.0699 2.56436 -1.90332 -5.96515 3.02162 19.3632 -2.00388 -11.5196 -45.281 7.86105 -33.0874 6.10245 -10.6964 -57.8117 7.6008 28.1605 -20.678 0 0 0 -12.7748 0.174734 0.335114 37.5772 -2.87559 22.0949 -1.62882 -1.66816 55.7115 -11.2189 13.9202 10.4908 0 0 0 -2.70068 7.82716 0.638362 17.8123 23.5275 -7.68902 0 0 0 
17.9489 79.2066 -4.76444 -6.69328 -17.1338 161.89 -1.15427 -35.9706 3.84555 0.700955 16.9514 4.12169 0.502468 0.626623 -0.00665828 0 0 0 -3.29891 -37.1593 -8.09194 0.221948 20.46 4.97593 -0.966435 -1.46156 -0.0123523 0 0 0 0.749153 26.2517 2.32385 -1.6529 -7.09114 2.75923 20.4385 -2.27568 -12.1961 -31.0557 20.7474 -35.1488 8.71697 -13.8115 -55.7546 5.33869 8.89189 -16.9754 0 0 0 -12.7111 0.0858125 1.11643 36.092 -0.353987 23.1044 -1.73682 -1.76545 54.9918 -12.1285 11.1196 7.83739 0 0 0 -2.86256 9.37654 0.837739 18.254 22.8887 -7.67678 0 0 0 
17.7968 79.1692 -4.55508 -7.14561 -18.0523 161.346 -1.11348 -37.3551 3.74538 0.496878 16.9937 4.66899 0.696286 0.937352 -0.00856292 0 0 0 -3.22296 -38.5675 -7.73012 0.0577374 20.3254 5.13021 -0.773287 -0.957456 -0.00646415 0 0 0 0.774384 28.1861 2.32059 -1.25099 -7.00835 2.69309 21.1758 -2.40293 -12.3106 -25.6703 24.0087 -37.8655 9.16877 -13.4478 -53.7509 4.66103 -0.021658 -16.0082 0 0 0 -13.0672 -0.029538 1.97488 36.19 0.920224 24.1634 -2.32937 -2.55562 54.3959 -11.6831 10.4864 6.16435 0 0 0 -2.69123 9.16976 0.982632 18.3019 23.7602 -7.61648 0 0 0 
17.6151 79.1289 -4.39564 -7.72551 -18.8144 160.704 -1.29308 -38.585 3.48013 0.30119 17.0819 5.28607 0.912299 1.14509 -0.00999877 0 0 0 -3.6833 -39.8965 -8.0054 0.275391 20.4165 5.6467 -0.783571 -0.589292 -0.0038308 0 0 0 0.757336 30.4095 2.41718 -0.950599 -7.5328 2.65359 21.3756 -2.46845 -12.4982 -23.8971 24.9236 -39.4624 9.31145 -13.0716 -52.5976 4.46107 -3.78475 -15.2718 0 0 0 -13.5539 -0.11541 2.48888 36.7578 1.54718 25.3501 -2.50588 -2.69217 53.27 -11.2086 9.85877 6.07241 0 0 0 -3.23686 10.433 1.07074 19.2692 22.6134 -7.98543 0 0 0 
17.4416 79.092 -4.25131 -8.40195 -19.7162 159.957 -1.51372 -39.9479 3.08426 0.190507 17.1589 6.07768 1.05105 1.33244 -0.0106285 0 0 0 -3.99974 -41.3551 -8.04847 0.352762 20.4376 6.00861 -0.712894 -0.213855 -0.00180133 0 0 0 0.844605 32.1124 2.47611 -0.868939 -7.59078 2.66532 21.561 -2.52566 -12.6512 -23.8573 24.4126 -40.2497 9.50602 -13.008 -51.912 4.48206 -5.11011 -14.8549 0 0 0 -13.7505 -0.191338 3.0218 36.7095 1.81413 26.346 -2.47685 -2.60386 52.7835 -10.579 9.48892 5.14684 0 0 0 -3.67923 11.5091 1.14567 20.0181 21.3924 -8.22267 0 0 0 
17.2761 79.0584 -4.11743 -9.15724 -20.6818 159.097 -1.71262 -41.3734 2.67613 0.0953684 17.2143 7.05117 1.16165 1.51001 -0.0111106 0 0 0 -4.20567 -42.8637 -7.96075 0.377065 20.3711 6.34934 -0.620172 0.196148 0.000524784 0 0 0 1.1047 33.5638 2.43676 -1.02343 -7.39207 2.69406 21.5354 -2.53039 -12.6944 -23.8277 23.1015 -40.8213 9.6551 -12.924 -51.3069 4.75191 -5.30395 -14.7395 0 0 0 -13.8712 -0.284369 3.7031 36.5439 1.15507 27.1482 -1.96869 -1.93299 52.7222 -10.2619 9.87926 4.20732 0 0 0 -3.44295 11.5635 1.19647 19.6107 21.3513 -7.91318 0 0 0 
17.1202 79.0288 -4.00374 -9.88511 -21.5649 158.271 -1.87002 -42.6788 2.3375 -0.0309253 17.2482 8.0061 1.29592 1.66811 -0.0115351 0 0 0 -4.48301 -44.2246 -8.01607 0.4959 20.2723 6.76859 -0.586054 0.58812 0.00225041 0 0 0 1.45828 35.2846 2.36385 -1.15577 -7.55059 2.72323 21.1719 -2.48793 -12.7513 -23.0867 21.6505 -41.484 9.65378 -12.6186 -50.6563 5.1919 -4.79194 -14.9596 0 0 0 -14.1132 -0.392494 4.43891 36.6128 -0.385223 27.87 -1.06569 -0.73216 52.3458 -10.2937 10.794 4.25849 0 0 0 -2.94386 11.2989 1.24951 18.5461 21.7779 -7.30526 0 0 0 
